<svg id="Layer_1" data-name="Layer 1" xmlns="http://www.w3.org/2000/svg" viewBox="0 0 530.5 530.5"><defs><style>.cls-1{fill:#37474f;}.cls-2{fill:#81c784;}.cls-3{fill:none;stroke:#37474f;stroke-miterlimit:10;stroke-width:20px;}</style></defs><path class="cls-1" d="M442.92,72.86c-92.7-85.21-262.68-85.22-355.39,0C-22,161.2-22,370.51,87.51,458.89c88.31,82.72,264.48,86.31,355.38,0C552.39,370.55,552.43,161.22,442.92,72.86ZM199.82,505.54h0c95.81-44.48,58.06-223.35,17.39-302.66,1.64-2.64,5.22-8.16,6.28-10.84,57.92,93.53,18.07,263.17,143.77,301.73C316.21,514.58,254.14,518.71,199.82,505.54Zm79.25-141.33c-12.93-47.63-1.28-120.39,25.63-166.56C277.84,244.65,276.26,312,279.07,364.21ZM436.28,451.4A239.36,239.36,0,0,1,382.57,487c-42.09-6.06-72.77-36.69-89.08-78.37l.15,0c-7.69-31.83-13.83-179.72,31.73-223.28,2.34,70.06,51.71,62.23,65.28,121.51,2.78-34.9,7.88-98.11,1.76-116.29-21.2-77-89.56-35.48-109.74,30.28-9.14,24.86-14.83,52.5-17.62,79.7-11.28-48.38-17.52-102.14-50.84-139.61-8.17-6-13.4-5.44-24-3-60.89,12.53-87.72,96-97.53,141.2,1.94-4.9,64.07-53.08,67.53-55.2,14.26-8.22,41.24-20.54,52.87-35.17,12.52,20.71,20.29,55.93,30.53,101.06,11.6,51.11,27.29,158.53-59.14,191.57C5.12,456.2-42.95,196.12,94.15,80.34c89.07-81.88,253.09-81.89,342.16,0C541.3,165,541.31,366.78,436.28,451.4ZM305.92,195.58a122.41,122.41,0,0,1,8.82-13A139.08,139.08,0,0,0,305.92,195.58Zm10.53-15.1a96.38,96.38,0,0,1,10.21-10.83A108.89,108.89,0,0,0,316.45,180.48Zm52.76,42.39c-.88-11.43-18-59-15-60,43.78-5.5,36.83,49.22,37,79-.89,1.06,3,66.18-4,49-2-8-18.18-30.61-23.32-36.63-32.13-30.48-43.27-80.69-14.68-89.37C358.21,182.87,370.21,235.9,369.21,222.87Zm-233.83,7c12.47-30.48,42.11-74.17,71.37-64.28a0,0,0,0,1,0,0c24.22,28.68-11.88,54.25-44.57,74.29-13,7.22-49,39.86-65,50,10.85-42.2,28.69-87.55,69.77-117.72-17.6,24.41-34.84,53.47-35.22,58.9A2.78,2.78,0,0,0,135.38,229.83Z"/><path class="cls-1" d="M279.07,364.21c-12.93-47.63-1.28-120.39,25.63-166.56C277.84,244.65,276.26,312,279.07,364.21Z"/><path class="cls-1" d="M387.21,290.87c-2-8-18.18-30.61-23.32-36.63-32.13-30.48-43.27-80.69-14.68-89.37,9,18,21,71,20,58-.88-11.43-18-59-15-60,43.78-5.5,36.83,49.22,37,79C390.32,242.93,394.24,308.05,387.21,290.87Z"/><path class="cls-2" d="M162.21,239.87c-13,7.22-49,39.86-65,50,10.85-42.2,28.69-87.55,69.77-117.72-17.6,24.41-34.84,53.47-35.22,58.9a2.78,2.78,0,0,0,3.62-1.22c12.47-30.48,42.11-74.17,71.37-64.28a0,0,0,0,1,0,0C231,194.26,194.9,219.83,162.21,239.87Z"/><path class="cls-2" d="M367.26,493.76c-51.05,20.82-113.12,25-167.44,11.78h0c95.81-44.48,58.06-223.35,17.39-302.66,1.64-2.64,5.22-8.16,6.28-10.84C281.41,285.56,241.56,455.2,367.26,493.76Z"/><circle class="cls-3" cx="265.25" cy="265.25" r="255.25"/></svg>